<?xml version="1.0" encoding="UTF-8"?>
<svg xmlns="http://www.w3.org/2000/svg" version="1.1" viewBox="0 0 273 273">
  <defs>
    <style>
      #c1 {
        opacity: 0;
        animation: fade 2s forwards 0s 1;
      }

      #c2 {
        opacity: 0;
        animation: fade 2s forwards 0.25s 1;
      }

      #c3 {
        opacity: 0;
        animation: fade 2s forwards 0.5s 1;
      }

      #baseAbajo {
        opacity: 0;
        animation: fade 2s forwards 0.25s 1;
      }

      #baseArriba {
        opacity: 0;
        animation: fade 2s forwards 0.5s 1;
      }

      #clipping {
        transform: translateY(253px);
        animation: shrink 1s forwards 1.75s 1;
        transform-origin: top center;
        will-change: transform;
      }

      #circulo {
        opacity: 0;
        animation: fade 1s forwards 2.75s 1;
      }

      #tallo {
        opacity: 0;
        animation: fade 2s forwards 3s 1;
      }

      #hi1 {
        opacity: 0;
        animation: fade 2s forwards 3.25s 1;
      }

      #hd1 {
        opacity: 0;
        animation: fade 2s forwards 3.25s 1;
      }

      #hi2 {
        opacity: 0;
        animation: fade 2s forwards 3.5s 1;
      }

      #hd2 {
        opacity: 0;
        animation: fade 2s forwards 3.75s 1;
      }

      @keyframes fade {
        0% {
          opacity: 0;
        }

        100% {
          opacity: 1;
        }
      }

      path,
      polygon {
        fill: #FFF;
      }

      @keyframes shrink {
        0% {
          transform: translateY(253px);
        }

        100% {
          transform: translateY(0px);
        }
      }
    </style>
  </defs>
  <clipPath id="clipping">
    <path d="M0,273h273V-273H0v273h0ZM136.5,109.4c44,0,79.7,35.7,79.7,79.7s-35.7,79.7-79.7,79.7-79.7-35.7-79.7-79.7,35.7-79.7,79.7-79.7Z" />
  </clipPath>
  <path id="techo" d="M133.2.5c2.5-.6,5.8-.5,8.1.9l103,76.8c4.3,3.3,4.1,10.7-1.1,12.7l-209.8.8c-7.1.2-10.7-7.2-5.9-12.5L133.2.5Z" />
  <path id="circulo" d="M136.3,272.8c-46,0-83.4-37.4-83.4-83.4s37.4-83.4,83.4-83.4,83.4,37.4,83.4,83.4-37.4,83.4-83.4,83.4ZM136.3,113c-42.1,0-76.4,34.3-76.4,76.4s34.3,76.4,76.4,76.4,76.4-34.3,76.4-76.4-34.3-76.4-76.4-76.4Z" />
  <g clip-path="url(#clipping)">
    <path id="baseAbajo" d="M252.8,216.4h-94.8c0,0-139,0-139,0-4,.7-2.7,8.7-2.5,12h238.9c.2-3.3,1.5-11.3-2.5-12Z" />
    <path id="baseArriba" d="M232.9,191H90.9c0,0,0-.1,0-.2h-51.4c-4.2,2.6-2.6,7.4-2.8,11.6h55.2s144.1,0,144.1,0c-.3-4.1,1.6-9.4-3-11.4Z" />
    <polygon id="c1" points="64.6 99.1 64.6 112.1 64.6 154.2 64.6 191.2 88.8 191.2 88.8 141.1 88.8 99.1 64.6 99.1" />
    <polygon id="c2" points="124.2 99.1 124.2 112.1 124.2 154.2 124.2 191.2 148.4 191.2 148.4 141.1 148.4 99.1 124.2 99.1" />
    <polygon id="c3" points="183.8 99.1 183.8 112.1 183.8 154.2 183.8 191.2 208 191.2 208 141.1 208 99.1 183.8 99.1" />
  </g>
  <path id="tallo" d="M133.1,268.9v-77.4c0-2,1.6-3.7,3.7-3.7h0c2,0,3.7,1.6,3.7,3.7v77.4h-7.5,0Z" />
  <path id="hd1" d="M129.3,206.3c-16.4-15-32-11.4-32-11.4,0,0-3.4,17.6,11.4,31.7,14.8,14.2,29.9,10.1,29.9,10.1,0,0,7.1-15.4-9.3-30.4h0ZM113.7,221.3c-8.9-8.3-9.1-19.2-9.1-19.2,0,0,10.7,0,19.4,9.1,8.7,9,8.7,19,8.7,19,0,0-9.6,0-19-8.9Z" />
  <path id="hi1" d="M175.6,213.6s-15-4.1-29.9,10.1c-14.8,14.2-11.4,31.7-11.4,31.7,0,0,15.6,3.5,32-11.4,16.4-15,9.3-30.4,9.3-30.4h0ZM169.7,220s0,10-8.7,19c-8.7,9-19.4,9.1-19.4,9.1,0,0,.2-10.9,9.1-19.2,9.4-8.9,19-8.9,19-8.9Z" />
  <path id="hd2"
    d="M181.4,160.2c-.5-6.3-4.1-12.6-7-13.1-2.9-.5-4.4,3.4-4.4,3.4,0,0-1.6,4.8-5.7,8.1-4.3,3.3-11.2,6.7-17.1,10.7-5.9,4-9.8,7.7-11.7,13.5s-4.3,20.2,0,23.9c2.3,2,4.9,2.1,4.9,2.1,0,0,19.6-1.3,31.2-16.4,9.4-12.3,10.3-25.8,9.8-32.1h0ZM164.7,188.8c-8.3,11-24.3,12.3-24.3,12.3,0,0-1.9-13.1,5.2-20.9,6.1-6.6,15.6-11.3,20.2-13.4,5.5-2.6,8.5-7.5,8.5-7.5,0,0,2.9,12.9-9.6,29.4h0Z" />
  <path id="hi2"
    d="M101.3,173.9c11.5,15.1,31.2,16.4,31.2,16.4,0,0,2.5-.2,4.9-2.1,4.3-3.8,1-21,0-23.9-1.8-5.8-5.8-9.5-11.7-13.5-5.9-4-12.8-7.4-17.1-10.7-4.3-3.3-5.7-8.1-5.7-8.1,0,0-1.5-4-4.4-3.4-2.9.5-6.4,6.8-7,13.1-.5,6.3.3,19.8,9.8,32.1ZM98.5,141s3,4.8,8.5,7.5c4.6,2.2,14.1,6.8,20.2,13.4,7.2,7.8,5.2,20.9,5.2,20.9,0,0-16-1.5-24.3-12.3-12.6-16.4-9.6-29.4-9.6-29.4Z" />
</svg>