<?xml version="1.0" encoding="UTF-8"?>
<svg id="Capa_1" xmlns="http://www.w3.org/2000/svg" version="1.1" viewBox="0 0 263.2 263.2">
  <!-- Generator: Adobe Illustrator 29.3.1, SVG Export Plug-In . SVG Version: 2.1.0 Build 151)  -->
  <defs>
    <style>
      .st0,
      .st1 {
        fill: #fff;
      }

      #tallo {
        opacity: 0;
        animation: fade 2s forwards 0.75s 1;
      }

      #hi1 {
        opacity: 0;
        animation: fade 2s forwards 1s 1;
      }

      #hd1 {
        opacity: 0;
        animation: fade 2s forwards 1.25s 1;
      }

      #hi2 {
        opacity: 0;
        animation: fade 2s forwards 1.5s 1;
      }

      #hd2 {
        opacity: 0;
        animation: fade 2s forwards 1.75s 1;
      }

      #engrane {
        animation: rotate 6s forwards 0s infinite linear;
        transform-origin: center center;
      }

      @keyframes fade {
        0% {
          opacity: 0;
        }

        100% {
          opacity: 1;
        }
      }

      @keyframes rotate {
        0% {
          transform: rotate(0deg);
        }

        100% {
          transform: rotate(359deg);
        }
      }
    </style>
  </defs>
  <path class="st0" id="engrane"
    d="M133.4,263.2c-7.7,0-21.3-.6-26.8-3.7-5.6-3.2-8-11.4-10.1-18.6-.8-2.6-1.9-6.5-2.6-7.5-1.4-.7-6-2.5-7.6-3-1.7.5-6,2.8-8.7,4.3-3.8,2.1-7.5,4.1-10,4.8-3.2.8-6.2.9-9,.3-7.5-1.7-33.4-27.6-35.1-35.1-.5-2.1-.6-4.7-.2-7,.4-2.9,2.7-7,5.3-11.8,1.6-2.9,4.1-7.6,4.4-9.2-.5-1.5-2.5-6.1-3.4-7.5-1.8-1.1-5.1-2-8.2-2.8-7-1.9-14.9-4.1-18-10.5C-.3,148.5-.1,129.2.1,124.8v-.4c.4-7.1,1-17.8,8.3-22.7,2.5-1.7,7.5-3.3,12.7-5,3-1,7.5-2.4,8.9-3.2.7-1.5,2.4-5.9,2.9-7.4-.5-1.7-2.8-6-4.3-8.7-2.1-3.8-4.1-7.5-4.8-10-.9-3.6-.9-6.8,0-10,1.9-6.3,18.9-22.8,21.6-25.1l1.2-1c5.3-4.6,11.3-9.8,20.1-8,2.3.5,5.6,2.2,10.8,5,2.9,1.5,7.6,4.1,9.3,4.5,1.6-.5,6-2.5,7.4-3.3.9-1.6,1.9-5.2,2.8-8.1,1.1-3.9,2.3-8,3.8-10.8,3.5-6.6,6.7-7.8,13-9.1,4.4-.9,13.6-1.6,22.8-1.3,11.5.4,19,2.2,22.6,5.3,4,3.6,5.9,10.5,7.6,16.6.8,2.7,1.8,6.4,2.6,7.6,1.5.8,6.2,2.6,7.8,3.1,1.7-.5,6-2.8,8.7-4.3,3.8-2.1,7.5-4.1,10-4.8,3.2-.8,6.2-.9,9-.3,7.5,1.7,33.4,27.6,35.1,35.1,1.6,6.9-2.6,14.4-6,20.5-1.4,2.4-3.4,6.1-3.5,7.4.5,1.4,2.5,6.1,3.4,7.6,1.8,1.1,5.1,2,8.3,2.8,5.6,1.5,11.4,3.1,15.1,6.6,8.9,8.5,5.8,40.6,4.5,46.9-.9,4.3-2,7.8-6.7,11-2.5,1.7-7.5,3.3-12.7,5-3,1-7.5,2.4-8.9,3.2-.7,1.6-2.4,5.9-2.9,7.5.4,1.9,2.7,5.9,4.4,8.9,2.1,3.7,4,7.1,4.7,9.8.8,3.2.9,6.2.3,9-1.7,7.5-27.6,33.4-35.1,35.1-6.9,1.6-14.4-2.6-20.5-6-2.4-1.4-6.1-3.4-7.4-3.5-1.4.5-6.1,2.5-7.6,3.4-1.1,1.8-1.9,5-2.7,8-1.9,7-4,15-10.5,18.2-4.8,2.4-17.4,3.2-17.5,3.2-.9,0-2.7.1-5,.1h0ZM86.2,223.3c2.3,0,11,3.7,12,4.5,2.4,1.9,3.5,5.8,5,11.1,1.5,5.4,3.7,12.7,6.8,14.5,4.3,2.4,20.6,3.2,28,2.7,4.5-.3,12.5-1.4,14.8-2.5,3.7-1.8,5.4-8.1,6.9-13.7,1.1-4.1,2.1-8,4-10.7,1.5-2.1,11-5.8,12.3-5.9,3.3-.3,7,1.8,11.6,4.3,5,2.8,11.2,6.3,15.5,5.3,4.9-1.2,28.6-25,29.9-29.9.4-1.7.3-3.6-.2-5.7-.5-1.7-2.4-5.1-4-8.1-2.6-4.6-5.1-9-5.4-12.1-.2-2.1,3.7-11.2,4.5-12.1,1.4-1.8,4.3-2.8,12.2-5.4,4.1-1.4,9.3-3,11-4.2,2.4-1.6,2.9-2.8,3.7-6.6,2.2-10.1,2.4-35.7-2.5-40.3-2.4-2.3-7.5-3.7-12.1-4.9-4.2-1.2-8.2-2.2-10.8-4.1-2.1-1.5-5.8-11-5.9-12.3-.3-3.3,1.8-7,4.3-11.6,2.8-5,6.3-11.2,5.3-15.5-1.2-4.9-25-28.6-29.9-29.9-1.7-.4-3.6-.3-5.7.2-1.7.4-5.2,2.4-8.4,4.2-5.6,3.1-9.2,5-11.8,5.2-2,.2-11.8-3.9-12.9-5.1h0c-2-2.1-3.1-6-4.4-10.8-1.4-4.9-3.1-11-5.6-13.3-4.9-4.4-29.9-4.3-39.3-2.4-5.2,1.1-6,1.5-8.3,5.6-1.2,2.1-2.2,5.9-3.3,9.5-1.3,4.5-2.4,8.3-4,10.6-1.5,2.1-11,5.8-12.3,5.9-2.5.2-5.8-1.4-13.2-5.3-3.3-1.8-7.4-4-8.9-4.3-5.4-1.1-9.4,2.4-14.1,6.4l-1.2,1c-5.2,4.5-18.5,18.6-19.5,21.8-.6,1.9-.6,3.8,0,6.2.4,1.7,2.4,5.2,4.2,8.4,3.1,5.6,5,9.2,5.2,11.8.2,2.1-3.7,11.2-4.5,12.1-1.4,1.8-4.5,2.9-12.2,5.4-4.1,1.4-9.3,3-11,4.2-4.4,2.9-4.8,11.2-5.1,17.2v.4c-.4,7.1.1,22.8,2.5,27.5,1.7,3.5,8,5.3,13.6,6.8,4.1,1.1,8.1,2.2,10.8,4.1,2.1,1.5,5.8,11,5.9,12.3.2,2.9-1.7,6.7-5.3,13.2-1.9,3.5-4.2,7.8-4.5,9.5-.2,1.5-.2,3.2.1,4.4,1.2,4.9,25,28.6,29.9,29.9,1.7.4,3.6.3,5.7-.2,1.7-.4,5.2-2.4,8.4-4.2,5.6-3.1,9.2-5,11.8-5.2,0,0,0,0,.1,0h0ZM233,169.7h0s0,0,0,0Z" />
  <path class="st0" d="M131.6,212.6c-44.7,0-81-36.3-81-81s36.3-81,81-81,81,36.3,81,81-36.3,81-81,81ZM131.6,57.6c-40.8,0-74,33.2-74,74s33.2,74,74,74,74-33.2,74-74-33.2-74-74-74Z" />
  <path id="tallo" class="st1" d="M128.3,209.2v-77.2c0-2,1.6-3.7,3.7-3.7h0c2,0,3.7,1.6,3.7,3.7v77.2h-7.4,0Z" />
  <path id="hd1" class="st1" d="M124.5,146.8c-16.4-15-31.9-11.4-31.9-11.4,0,0-3.4,17.5,11.4,31.6,14.8,14.1,29.8,10.1,29.8,10.1,0,0,7.1-15.4-9.3-30.3h0ZM108.9,161.8c-8.9-8.3-9.1-19.2-9.1-19.2,0,0,10.6,0,19.4,9.1,8.7,9,8.7,19,8.7,19,0,0-9.6,0-19-8.9Z" />
  <path id="hi1" class="st1" d="M170.6,154s-15-4.1-29.8,10.1c-14.8,14.1-11.4,31.6-11.4,31.6,0,0,15.6,3.5,31.9-11.4,16.4-15,9.3-30.3,9.3-30.3h0ZM164.7,160.4s0,10-8.7,19c-8.7,9-19.4,9.1-19.4,9.1,0,0,.2-10.8,9.1-19.2,9.4-8.9,19-8.9,19-8.9Z" />
  <path id="hd2" class="st1"
    d="M176.4,100.8c-.5-6.3-4.1-12.6-7-13.1s-4.4,3.4-4.4,3.4c0,0-1.5,4.7-5.7,8-4.3,3.3-11.1,6.7-17,10.6s-9.8,7.6-11.7,13.4-4.3,20.1,0,23.8c2.3,2,4.8,2.1,4.8,2.1,0,0,19.5-1.3,31.2-16.4,9.4-12.3,10.3-25.7,9.8-32h0ZM159.8,129.4c-8.3,10.9-24.3,12.3-24.3,12.3,0,0-1.9-13.1,5.2-20.8,6.1-6.6,15.6-11.2,20.1-13.4,5.5-2.6,8.5-7.4,8.5-7.4,0,0,2.9,12.9-9.6,29.3h0Z" />
  <path id="hi2" class="st1"
    d="M96.5,114.5c11.5,15.1,31.2,16.4,31.2,16.4,0,0,2.5-.2,4.8-2.1,4.3-3.8,1-20.9,0-23.8-1.8-5.8-5.8-9.5-11.7-13.4s-12.8-7.4-17-10.6-5.7-8-5.7-8c0,0-1.5-4-4.4-3.4-2.9.5-6.4,6.8-7,13.1-.5,6.3.3,19.7,9.8,32ZM93.7,81.7s3,4.7,8.5,7.4c4.5,2.2,14,6.8,20.1,13.4,7.2,7.7,5.2,20.8,5.2,20.8,0,0-16-1.5-24.3-12.3-12.6-16.4-9.6-29.3-9.6-29.3Z" />
</svg>