<?xml version="1.0" encoding="UTF-8"?>
<svg xmlns="http://www.w3.org/2000/svg" version="1.1" viewBox="0 0 215.4 241.9">
  <def>
    <style>
      #l1 {
        opacity: 0;
        animation: fade 2s forwards 0s 1;
      }

      #l2 {
        opacity: 0;
        animation: fade 2s forwards 0.25s 1;

      }

      #l3 {
        opacity: 0;
        animation: fade 2s forwards 0.5s 1;
      }

      #l4 {
        opacity: 0;
        animation: fade 2s forwards 0.75s 1;
      }

      #l5 {
        opacity: 0;
        animation: fade 2s forwards 1s 1;
      }

      #l6 {
        opacity: 0;
        animation: fade 2s forwards 1.25s 1;
      }

      #c1 {
        opacity: 0;
        animation: fade 2s forwards 0s 1;
      }

      #c2 {
        opacity: 0;
        animation: fade 2s forwards 0.25s 1;
      }

      #c3 {
        opacity: 0;
        animation: fade 2s forwards 0.5s 1;
      }

      #c4 {
        opacity: 0;
        animation: fade 2s forwards 0.75s 1;
      }

      #c5 {
        opacity: 0;
        animation: fade 2s forwards 1s 1;
      }

      #c6 {
        opacity: 0;
        animation: fade 2s forwards 1.25s 1;
      }

      #tallo {
        opacity: 0;
        animation: fade 2s forwards 0.75s 1;
      }

      #hi1 {
        opacity: 0;
        animation: fade 2s forwards 1s 1;
      }

      #hd1 {
        opacity: 0;
        animation: fade 2s forwards 1.25s 1;
      }

      #hi2 {
        opacity: 0;
        animation: fade 2s forwards 1.5s 1;
      }

      #hd2 {
        opacity: 0;
        animation: fade 2s forwards 1.75s 1;
      }

      @keyframes fade {
        0% {
          opacity: 0;
        }

        100% {
          opacity: 1;
        }
      }
    </style>
  </def>

  <polygon fill="#FFF" id="l1" points="180.4 66 161.4 55.4 119.5 32.1 123.2 25.4 151.8 41.3 184.1 59.3 180.4 66" />
  <polygon fill="#FFF" id="l2" points="191.2 88.2 191.3 128.3 191.3 154.3 198.9 154.3 198.9 113.4 198.9 88.2 191.2 88.2" />
  <polygon fill="#FFF" id="l3" points="180.4 176.3 155.8 190 119.5 210.2 123.2 216.9 154.6 199.4 184.1 183 180.4 176.3" />
  <polygon fill="#FFF" id="l4" points="35 176.3 75.5 198.8 96 210.2 92.2 216.9 66.2 202.4 31.3 183 35 176.3" />
  <polygon fill="#FFF" id="l5" points="17 88.2 17 132.4 17 154.3 24.6 154.3 24.6 115.3 24.6 88.2 17 88.2" />
  <polygon fill="#FFF" id="l6" points="35 66 58.7 52.8 96 32.1 92.2 25.4 69.1 38.2 31.3 59.3 35 66" />

  <path fill="#FFF" id="tallo" d="M104.1,202.9v-79.8c0-2.1,1.7-3.8,3.8-3.8h0c2.1,0,3.8,1.7,3.8,3.8v79.8h-7.7,0Z" />
  <path fill="#FFF" id="c1" d="M107.7-.3c-11.3,0-20.5,9.2-20.5,20.5s9.2,20.5,20.5,20.5,20.5-9.2,20.5-20.5S119-.3,107.7-.3ZM107.7,32.9c-7.1,0-12.8-5.7-12.8-12.8s5.7-12.8,12.8-12.8,12.8,5.7,12.8,12.8-5.7,12.8-12.8,12.8Z" />
  <path fill="#FFF" id="c2" d="M195.1,52.8c-11.3,0-20.5,9.2-20.5,20.5s9.2,20.5,20.5,20.5,20.5-9.2,20.5-20.5-9.2-20.5-20.5-20.5ZM195.1,86.1c-7.1,0-12.8-5.7-12.8-12.8s5.7-12.8,12.8-12.8,12.8,5.7,12.8,12.8-5.7,12.8-12.8,12.8Z" />
  <path fill="#FFF" id="c3" d="M195.1,148.5c-11.3,0-20.5,9.2-20.5,20.5s9.2,20.5,20.5,20.5,20.5-9.2,20.5-20.5-9.2-20.5-20.5-20.5ZM195.1,181.7c-7.1,0-12.8-5.7-12.8-12.8s5.7-12.8,12.8-12.8,12.8,5.7,12.8,12.8-5.7,12.8-12.8,12.8Z" />
  <path fill="#FFF" id="c4" d="M107.7,201.6c-11.3,0-20.5,9.2-20.5,20.5s9.2,20.5,20.5,20.5,20.5-9.2,20.5-20.5-9.2-20.5-20.5-20.5ZM107.7,234.8c-7.1,0-12.8-5.7-12.8-12.8s5.7-12.8,12.8-12.8,12.8,5.7,12.8,12.8-5.7,12.8-12.8,12.8Z" />
  <path fill="#FFF" id="c5" d="M20.3,148.5c-11.3,0-20.5,9.2-20.5,20.5s9.2,20.5,20.5,20.5,20.5-9.2,20.5-20.5-9.2-20.5-20.5-20.5ZM20.3,181.7c-7.1,0-12.8-5.7-12.8-12.8s5.7-12.8,12.8-12.8,12.8,5.7,12.8,12.8-5.7,12.8-12.8,12.8Z" />
  <path fill="#FFF" id="c6" d="M20.3,52.8C9,52.8-.2,62-.2,73.3s9.2,20.5,20.5,20.5,20.5-9.2,20.5-20.5-9.2-20.5-20.5-20.5ZM20.3,86.1c-7.1,0-12.8-5.7-12.8-12.8s5.7-12.8,12.8-12.8,12.8,5.7,12.8,12.8-5.7,12.8-12.8,12.8Z" />

  <path fill="#FFF" id="hd1" d="M100.2,138.4c-16.9-15.5-33-11.8-33-11.8,0,0-3.5,18.1,11.8,32.7,15.3,14.6,30.8,10.4,30.8,10.4,0,0,7.3-15.9-9.6-31.3h0ZM84.1,153.9c-9.2-8.6-9.4-19.8-9.4-19.8,0,0,11,0,20,9.4,9,9.3,9,19.6,9,19.6,0,0-9.9,0-19.6-9.2Z" />
  <path fill="#FFF" id="hi1" d="M147.9,145.9s-15.5-4.2-30.8,10.4c-15.3,14.6-11.8,32.7-11.8,32.7,0,0,16.1,3.6,33-11.8,16.9-15.5,9.6-31.3,9.6-31.3h0ZM141.8,152.5s0,10.3-9,19.6-20,9.4-20,9.4c0,0,.2-11.2,9.4-19.8,9.7-9.2,19.6-9.2,19.6-9.2Z" />
  <path fill="#FFF" id="hd2"
    d="M153.9,90.9c-.5-6.5-4.2-13-7.2-13.5s-4.5,3.5-4.5,3.5c0,0-1.6,4.9-5.9,8.3-4.4,3.4-11.5,6.9-17.6,11s-10.1,7.9-12.1,13.9-4.4,20.8,0,24.6c2.4,2.1,5,2.2,5,2.2,0,0,20.2-1.3,32.2-16.9,9.7-12.7,10.6-26.6,10.1-33.1h0ZM136.7,120.4c-8.6,11.3-25.1,12.7-25.1,12.7,0,0-2-13.5,5.4-21.5,6.3-6.8,16.1-11.6,20.8-13.8,5.7-2.7,8.8-7.7,8.8-7.7,0,0,3,13.3-9.9,30.3h0Z" />
  <path fill="#FFF" id="hi2"
    d="M71.3,105c11.9,15.6,32.2,16.9,32.2,16.9,0,0,2.6-.2,5-2.2,4.4-3.9,1-21.6,0-24.6-1.9-6-6-9.8-12.1-13.9s-13.2-7.6-17.6-11-5.9-8.3-5.9-8.3c0,0-1.5-4.1-4.5-3.5-3,.5-6.6,7-7.2,13.5-.5,6.5.3,20.4,10.1,33.1ZM68.4,71.1s3.1,4.9,8.8,7.7c4.7,2.3,14.5,7,20.8,13.8,7.4,8,5.4,21.5,5.4,21.5,0,0-16.5-1.5-25.1-12.7-13-16.9-9.9-30.3-9.9-30.3Z" />
</svg>