<?xml version="1.0" encoding="UTF-8"?>
<svg id="b" data-name="Capa 2" xmlns="http://www.w3.org/2000/svg" viewBox="0 0 298.36 220.67">
  <defs>
    <style>
      .d {
        fill: #655a6c;
      }
    </style>
  </defs>
  <g id="c" data-name="Capa 1">
    <path class="d" d="M.06,28.61c1.14-9.94,8.16-15.88,17.22-18.47,5.25-1.5,5.18-2.43,9.6-4.77,39.95-21.18,83.55,25.51,110,50.05l36.41,37.37c13.46-29.55,40.58-51.3,74.69-46.39,49.79,7.17,73.18,78.57,20.42,99.79-32.3,12.99-59.46-6.91-81.95-27.76-4.13-3.83-9.97-11.26-14.12-14.14-.41-.28-.47-.67-1.2-.47l-46.49,116.87h-10.54l-1.69-2.39-45.06-120.69c-.79-2.33-4-7.2-6.69-7.2h-7.43v-2.39h54.15v2.39h-13.18c-3.96,0-3.03,6.06-1.69,8.39,11.31,27.65,20.83,56.09,32.24,83.69,1.86,4.51,4.4,13.75,10.04,6.44l34.64-87.52c-23.21-23.38-43.5-49.75-67.8-72.07C80.36,9.74,48.71-11.53,21.76,11.6c3.64,7.72,5.19,16.07-.22,23.39-4.31,5.83-12.28,7.72-16.45,13.72C1.82,44.42,1.23,38.96.06,33.87c.14-1.7-.19-3.61,0-5.27ZM226.64,50.3c-24.7,2.19-43.02,22.46-51.44,44.41,11.03,10.83,22.02,21.85,34.05,31.59,20.19,16.36,45.77,29.42,69.67,11.23,20.42-15.55,20.64-37.15,6.86-57.54-13.12-19.41-35.27-31.8-59.15-29.69Z"/>
  </g>
</svg>